<svg xmlns="http://www.w3.org/2000/svg" width="1200" height="800" viewBox="0 0 1200 800" role="img" aria-label="AI technology illustration">
  <defs>
    <linearGradient id="bg" x1="0" y1="0" x2="1" y2="1">
      <stop offset="0" stop-color="#003366"/>
      <stop offset="1" stop-color="#2e8b57"/>
    </linearGradient>
  </defs>
  <rect width="1200" height="800" fill="url(#bg)"/>
  <g fill="none" stroke="#ffffff" stroke-width="8" opacity=".85">
    <circle cx="600" cy="400" r="145"/>
    <path d="M455 400H260M745 400h195M600 255V120M600 545v135M500 300 360 180M700 300 840 180M500 500 360 620M700 500 840 620"/>
  </g>
  <g fill="#fff">
    <circle cx="260" cy="400" r="24"/>
    <circle cx="940" cy="400" r="24"/>
    <circle cx="600" cy="120" r="24"/>
    <circle cx="600" cy="680" r="24"/>
    <circle cx="360" cy="180" r="22"/>
    <circle cx="840" cy="180" r="22"/>
    <circle cx="360" cy="620" r="22"/>
    <circle cx="840" cy="620" r="22"/>
  </g>
  <text x="600" y="420" text-anchor="middle" font-family="Arial, sans-serif" font-size="104" font-weight="700" fill="#fff">AI</text>
</svg>
